<svg width="50" height="50" viewBox="0 0 50 50" fill="none" xmlns="http://www.w3.org/2000/svg">
<g filter="url(#filter0_d_29_18)">
<path d="M21.5 18.5H24.5V15.5H21.5M23 35C16.385 35 11 29.615 11 23C11 16.385 16.385 11 23 11C29.615 11 35 16.385 35 23C35 29.615 29.615 35 23 35ZM23 8C21.0302 8 19.0796 8.38799 17.2597 9.14181C15.4399 9.89563 13.7863 11.0005 12.3934 12.3934C9.58035 15.2064 8 19.0218 8 23C8 26.9782 9.58035 30.7936 12.3934 33.6066C13.7863 34.9995 15.4399 36.1044 17.2597 36.8582C19.0796 37.612 21.0302 38 23 38C26.9782 38 30.7936 36.4196 33.6066 33.6066C36.4196 30.7936 38 26.9782 38 23C38 21.0302 37.612 19.0796 36.8582 17.2597C36.1044 15.4399 34.9995 13.7863 33.6066 12.3934C32.2137 11.0005 30.5601 9.89563 28.7403 9.14181C26.9204 8.38799 24.9698 8 23 8ZM21.5 30.5H24.5V21.5H21.5V30.5Z" fill="white"/>
</g>
<defs>
<filter id="filter0_d_29_18" x="0" y="0" width="50" height="50" filterUnits="userSpaceOnUse" color-interpolation-filters="sRGB">
<feFlood flood-opacity="0" result="BackgroundImageFix"/>
<feColorMatrix in="SourceAlpha" type="matrix" values="0 0 0 0 0 0 0 0 0 0 0 0 0 0 0 0 0 0 127 0" result="hardAlpha"/>
<feOffset dx="2" dy="2"/>
<feGaussianBlur stdDeviation="5"/>
<feComposite in2="hardAlpha" operator="out"/>
<feColorMatrix type="matrix" values="0 0 0 0 1 0 0 0 0 1 0 0 0 0 1 0 0 0 0.25 0"/>
<feBlend mode="normal" in2="BackgroundImageFix" result="effect1_dropShadow_29_18"/>
<feBlend mode="normal" in="SourceGraphic" in2="effect1_dropShadow_29_18" result="shape"/>
</filter>
</defs>
</svg>
