<svg width="25" height="25" viewBox="0 0 25 25" fill="none" xmlns="http://www.w3.org/2000/svg">
<path d="M10.593 14.407C11.1476 14.9344 11.1476 15.8 10.593 16.3274C10.0656 16.8549 9.20003 16.8549 8.67257 16.3274C6.0353 13.6902 6.0353 9.40289 8.67257 6.76562L13.4602 1.97796C16.0975 -0.659318 20.3848 -0.659318 23.022 1.97796C25.6593 4.61523 25.6593 8.90249 23.022 11.5398L21.0069 13.5549C21.0204 12.4459 20.8446 11.3369 20.4659 10.282L21.1016 9.63281C22.6975 8.05045 22.6975 5.4808 21.1016 3.89843C19.5192 2.30254 16.9496 2.30254 15.3672 3.89843L10.593 8.67257C8.99716 10.2549 8.99716 12.8246 10.593 14.407ZM14.407 8.67257C14.9344 8.14512 15.8 8.14512 16.3274 8.67257C18.9647 11.3098 18.9647 15.5971 16.3274 18.2344L11.5398 23.022C8.90249 25.6593 4.61523 25.6593 1.97796 23.022C-0.659318 20.3848 -0.659318 16.0975 1.97796 13.4602L3.9931 11.4451C3.97958 12.5541 4.1554 13.6631 4.53408 14.7315L3.89843 15.3672C2.30254 16.9496 2.30254 19.5192 3.89843 21.1016C5.4808 22.6975 8.05045 22.6975 9.63281 21.1016L14.407 16.3274C16.0028 14.7451 16.0028 12.1754 14.407 10.593C13.8524 10.0656 13.8524 9.20003 14.407 8.67257Z" fill="white"/>
</svg>
